<?xml version="1.0" encoding="UTF-8" standalone="no" ?>
<!DOCTYPE svg PUBLIC "-//W3C//DTD SVG 1.1//EN" "http://www.w3.org/Graphics/SVG/1.1/DTD/svg11.dtd">
<svg xmlns="http://www.w3.org/2000/svg" xmlns:xlink="http://www.w3.org/1999/xlink" version="1.1" width="2000" height="720" viewBox="0 0 2000 720" xml:space="preserve">
<desc>Created with Fabric.js 5.2.4</desc>
<defs>
</defs>
<rect x="0" y="0" width="100%" height="100%" fill="transparent"></rect>
<g transform="matrix(1 0 0 1 1000 360)" id="277b8d1d-e7d1-4d34-b686-206343bc5cc9"  >
<rect style="stroke: none; stroke-width: 1; stroke-dasharray: none; stroke-linecap: butt; stroke-dashoffset: 0; stroke-linejoin: miter; stroke-miterlimit: 4; fill: rgb(255,255,255); fill-rule: nonzero; opacity: 1; visibility: hidden;" vector-effect="non-scaling-stroke"  x="-1000" y="-360" rx="0" ry="0" width="2000" height="720" />
</g>x
<g transform="matrix(Infinity NaN NaN Infinity 0 0)" id="8cffaa70-2e38-46e2-ba3a-0bde158b4017"  >
</g>
<g transform="matrix(2 0 0 0.7 1004.08 360)"  >
<g style="" vector-effect="non-scaling-stroke"   >
		<g transform="matrix(1 0 0 1 -447.14 -448.23)"  >
<rect style="stroke: none; stroke-width: 1; stroke-dasharray: none; stroke-linecap: butt; stroke-dashoffset: 0; stroke-linejoin: miter; stroke-miterlimit: 4; fill: rgb(180,1,1); fill-opacity: 0; fill-rule: nonzero; opacity: 1;" vector-effect="non-scaling-stroke"  x="-50" y="-50" rx="0" ry="0" width="100" height="100" />
</g>
		<g transform="matrix(17.18 0 0 17.18 -145.48 -136.3)"  >
<path style="stroke: none; stroke-width: 1; stroke-dasharray: none; stroke-linecap: butt; stroke-dashoffset: 0; stroke-linejoin: miter; stroke-miterlimit: 4; fill: white ; fill-rule: nonzero; opacity: 1;" vector-effect="non-scaling-stroke"  transform=" translate(-41.53, -41.85)" d="M 39.74 43.791 C 39.49 43.791 39.357 43.687 39.29 43.598 C 39.185 43.46 39.165 43.269999999999996 39.23 43.035 L 39.276999999999994 42.864999999999995 C 39.583999999999996 41.751999999999995 39.724 41.24399999999999 41.306999999999995 40.294999999999995 C 41.733999999999995 40.038 42.187 39.901999999999994 42.614999999999995 39.901999999999994 C 43.208999999999996 39.901999999999994 43.68599999999999 40.175999999999995 43.82899999999999 40.599 C 43.900999999999996 40.812 43.98 41.376999999999995 43.15899999999999 42.004 C 42.218 42.722 40.53 43.791 39.74 43.791 z M 39.697 43.29 C 39.706 43.29 39.720000000000006 43.291 39.74 43.291 C 40.24 43.291 41.638000000000005 42.535 42.856 41.605999999999995 C 43.248000000000005 41.306999999999995 43.435 40.99099999999999 43.356 40.75899999999999 C 43.284 40.54599999999999 42.986000000000004 40.401999999999994 42.616 40.401999999999994 C 42.381 40.401999999999994 42.007 40.45799999999999 41.565 40.72299999999999 C 40.153999999999996 41.56899999999999 40.055 41.928999999999995 39.76 42.99699999999999 L 39.711999999999996 43.16899999999999 C 39.693999999999996 43.23199999999999 39.69199999999999 43.27099999999999 39.69199999999999 43.28999999999999 C 39.694 43.29 39.695 43.29 39.697 43.29 z" stroke-linecap="round" />
</g>
		<g transform="matrix(17.18 0 0 17.18 -155.37 -135.35)"  >
<path style="stroke: none; stroke-width: 1; stroke-dasharray: none; stroke-linecap: butt; stroke-dashoffset: 0; stroke-linejoin: miter; stroke-miterlimit: 4; fill: white ; fill-rule: nonzero; opacity: 1;" vector-effect="non-scaling-stroke"  transform=" translate(-40.96, -41.9)" d="M 36.451 46.058 C 36.128 46.058 35.899 45.963 35.771 45.776 C 35.628 45.567 35.632 45.279 35.781 44.897000000000006 C 36.495 43.075 38.333999999999996 40.766000000000005 38.411 40.668000000000006 C 39.775 39.223000000000006 42.088 37.745000000000005 43.623000000000005 37.745000000000005 C 44.597 37.745000000000005 45.773 38.155 46.139 38.937000000000005 C 46.283 39.246 46.353 39.73500000000001 45.869 40.313 C 45.742 40.464000000000006 45.603 40.635000000000005 45.453 40.82 C 44.369 42.159 42.729 44.182 40.79900000000001 44.755 C 40.321000000000005 44.897000000000006 39.769000000000005 45.096000000000004 39.23500000000001 45.288000000000004 C 38.14 45.684 37.103 46.058 36.451 46.058 z M 43.624 38.244 C 42.243 38.244 40.039 39.672 38.789 40.995 C 38.784 41.001999999999995 36.933 43.327999999999996 36.247 45.077999999999996 C 36.153999999999996 45.315999999999995 36.155 45.449999999999996 36.184 45.492999999999995 C 36.205 45.523999999999994 36.287 45.556999999999995 36.451 45.556999999999995 C 37.015 45.556999999999995 38.058 45.181 39.067 44.81699999999999 C 39.608 44.62199999999999 40.166 44.42099999999999 40.658 44.27499999999999 C 42.44 43.74699999999999 44.02 41.79599999999999 45.066 40.50399999999999 C 45.217000000000006 40.31699999999999 45.358000000000004 40.14399999999999 45.486000000000004 39.98999999999999 C 45.743 39.68399999999999 45.80800000000001 39.40699999999999 45.68600000000001 39.14699999999999 C 45.454 38.65 44.529 38.244 43.624 38.244 z" stroke-linecap="round" />
</g>
		<g transform="matrix(17.18 0 0 17.18 -160.59 -126.53)"  >
<path style="stroke: none; stroke-width: 1; stroke-dasharray: none; stroke-linecap: butt; stroke-dashoffset: 0; stroke-linejoin: miter; stroke-miterlimit: 4; fill: white ; fill-rule: nonzero; opacity: 1;" vector-effect="non-scaling-stroke"  transform=" translate(-40.65, -42.42)" d="M 33.955 49.448 C 33.555 49.448 33.254999999999995 49.323 33.061 49.078 C 32.789 48.733000000000004 32.75 48.173 32.943 47.365 L 32.96 47.295 C 33.818 43.708 34.173 42.224000000000004 37.349000000000004 39.609 C 41.082 36.535000000000004 43.099000000000004 35.548 45.982 35.388000000000005 C 47.095 35.324000000000005 47.903999999999996 35.78300000000001 48.274 36.653000000000006 C 48.952 38.245000000000005 47.942 40.78300000000001 45.701 43.11800000000001 C 42.235 46.729000000000006 41.518 46.93500000000001 39.604 47.48400000000001 C 39.414 47.53900000000001 39.211 47.59700000000001 38.993 47.662000000000006 C 38.436 47.82900000000001 37.774 48.12100000000001 37.073 48.431000000000004 C 35.939 48.931 34.766 49.448 33.955 49.448 z M 46.175 35.883 C 46.120999999999995 35.883 46.065999999999995 35.884 46.01 35.887 C 43.253 36.04 41.303 37 37.667 39.994 C 34.621 42.502 34.301 43.839 33.447 47.411 L 33.43 47.481 C 33.239 48.278 33.338 48.622 33.454 48.769 C 33.549 48.89 33.713 48.949 33.955 48.949 C 34.661 48.949 35.785 48.452999999999996 36.872 47.974 C 37.587 47.657999999999994 38.263 47.36 38.85 47.184 C 39.071 47.117999999999995 39.275 47.059 39.467 47.004 C 41.287 46.482 41.967999999999996 46.286 45.342 42.772 C 47.897 40.111 48.271 37.919 47.816 36.85 C 47.545 36.217 46.979 35.883 46.175 35.883 z" stroke-linecap="round" />
</g>
		<g transform="matrix(17.18 0 0 17.18 -158.8 -112.76)"  >
<path style="stroke: none; stroke-width: 1; stroke-dasharray: none; stroke-linecap: butt; stroke-dashoffset: 0; stroke-linejoin: miter; stroke-miterlimit: 4; fill: white ; fill-rule: nonzero; opacity: 1;" vector-effect="non-scaling-stroke"  transform=" translate(-40.76, -43.22)" d="M 30.217 54.351 C 29.948 54.351 29.732 54.26 29.573 54.082 C 29.274 53.746 29.198 53.113 29.323 52.028 C 29.834 47.649 32.284 43.007 34.487 40.349 C 36.482 37.940999999999995 38.959 35.474999999999994 43.536 33.753 C 45.731 32.927 48.209 32.083 49.946 32.083 C 50.900999999999996 32.083 51.568 32.345 51.931 32.861 C 52.367999999999995 33.480999999999995 52.352999999999994 34.415 51.885 35.717 C 49.846 41.393 45.412 48.192 39.077 50.253 C 36.644999999999996 51.044 34.601 52.212 33.108999999999995 53.065 C 31.806 53.812 30.863 54.351 30.217 54.351 z M 49.946 32.583 C 48.289 32.583 45.864999999999995 33.411 43.711999999999996 34.221 C 39.245 35.901999999999994 36.824 38.312999999999995 34.872 40.668 C 32.717 43.269 30.319 47.808 29.820999999999998 52.086 C 29.717 52.978 29.758999999999997 53.537 29.947 53.748 C 29.989 53.796 30.057 53.849999999999994 30.217 53.849999999999994 C 30.73 53.849999999999994 31.671 53.312 32.863 52.63099999999999 C 34.374 51.766999999999996 36.444 50.583999999999996 38.925 49.776999999999994 C 45.093999999999994 47.76899999999999 49.509 40.85699999999999 51.416 35.547999999999995 C 51.818 34.425999999999995 51.855 33.61899999999999 51.522999999999996 33.147999999999996 C 51.259 32.773 50.729 32.583 49.946 32.583 z" stroke-linecap="round" />
</g>
		<g transform="matrix(17.18 0 0 17.18 -146.28 -112.09)"  >
<path style="stroke: none; stroke-width: 1; stroke-dasharray: none; stroke-linecap: butt; stroke-dashoffset: 0; stroke-linejoin: miter; stroke-miterlimit: 4; fill: white ; fill-rule: nonzero; opacity: 1;" vector-effect="non-scaling-stroke"  transform=" translate(-41.49, -43.26)" d="M 21.784 65.239 C 21.733999999999998 65.239 21.683 65.224 21.639 65.193 C 21.526 65.113 21.5 64.957 21.579 64.844 C 24.347 60.934999999999995 27.844 57.90599999999999 31.974 55.840999999999994 C 34.168 54.74399999999999 35.996 53.925999999999995 37.61 53.20399999999999 C 40.693 51.824999999999996 42.922 50.82899999999999 45.126 49.004999999999995 C 48.562999999999995 46.15899999999999 52.468999999999994 41.36599999999999 53.446999999999996 37.07299999999999 C 53.72899999999999 35.83599999999999 53.919 34.836999999999996 54.086 33.955999999999996 C 54.519 31.667999999999996 54.757 30.407999999999994 55.929 28.883999999999997 C 56.534 28.096999999999998 57.429 26.722999999999995 58.376000000000005 25.267999999999997 C 59.269000000000005 23.897999999999996 60.190000000000005 22.480999999999998 60.984 21.376999999999995 C 61.065000000000005 21.264999999999997 61.22 21.239999999999995 61.334 21.319999999999997 C 61.445 21.400999999999996 61.471000000000004 21.556999999999995 61.391000000000005 21.668999999999997 C 60.604000000000006 22.762999999999998 59.684000000000005 24.174999999999997 58.795 25.539999999999996 C 57.843 27.002999999999997 56.942 28.385999999999996 56.325 29.187999999999995 C 55.225 30.616999999999994 54.995000000000005 31.835999999999995 54.577000000000005 34.047999999999995 C 54.409000000000006 34.934 54.220000000000006 35.937 53.935 37.18299999999999 C 52.861000000000004 41.891999999999996 48.689 46.70099999999999 45.444 49.38799999999999 C 43.187000000000005 51.25599999999999 40.933 52.26399999999999 37.813 53.65899999999999 C 36.205000000000005 54.37799999999999 34.381 55.19299999999999 32.197 56.285999999999994 C 28.141000000000002 58.31399999999999 24.706000000000003 61.28999999999999 21.987000000000002 65.131 C 21.939 65.202 21.862 65.239 21.784 65.239 z" stroke-linecap="round" />
</g>
		<g transform="matrix(17.18 0 0 17.18 -174.21 -138.31)"  >
<path style="stroke: none; stroke-width: 1; stroke-dasharray: none; stroke-linecap: butt; stroke-dashoffset: 0; stroke-linejoin: miter; stroke-miterlimit: 4; fill: white ; fill-rule: nonzero; opacity: 1;" vector-effect="non-scaling-stroke"  transform=" translate(-39.86, -41.73)" d="M 21.795 62.133 C 21.742 62.133 21.69 62.116 21.644000000000002 62.082 C 21.534000000000002 61.999 21.512 61.842 21.596000000000004 61.732 C 21.981000000000005 61.221 22.327000000000005 60.768 22.643000000000004 60.353 C 23.962000000000003 58.624 24.758000000000003 57.579 25.852000000000004 55.852000000000004 C 26.968000000000004 54.09 27.681000000000004 51.507000000000005 28.371000000000002 49.010000000000005 C 28.894000000000002 47.11600000000001 29.388 45.327000000000005 30.028000000000002 44.013000000000005 C 31.664 40.65500000000001 34.058 36.458000000000006 38.076 33.779 C 40.183 32.375 42.247 31.978000000000005 44.243 31.595000000000002 C 46.222 31.215000000000003 48.092 30.856 50.019000000000005 29.588 C 52.51800000000001 27.944000000000003 54.732000000000006 25.169 56.87500000000001 22.485 C 57.163000000000004 22.124 57.44700000000001 21.768 57.729000000000006 21.419 C 57.815000000000005 21.311 57.97200000000001 21.295 58.081 21.382 C 58.188 21.468 58.205000000000005 21.626 58.118 21.734 C 57.837 22.082 57.553000000000004 22.438000000000002 57.265 22.798000000000002 C 55.2 25.385 52.858000000000004 28.319000000000003 50.293 30.006 C 48.283 31.328 46.277 31.714 44.336 32.087 C 42.388999999999996 32.461000000000006 40.375 32.848000000000006 38.352 34.196000000000005 C 34.434 36.80800000000001 32.084999999999994 40.932 30.475999999999996 44.233000000000004 C 29.855999999999995 45.505 29.367999999999995 47.273 28.850999999999996 49.144000000000005 C 28.151999999999994 51.67700000000001 27.427999999999997 54.295 26.272999999999996 56.12100000000001 C 25.166999999999994 57.86600000000001 24.365999999999996 58.91700000000001 23.038999999999994 60.65800000000001 C 22.722999999999995 61.07200000000001 22.377999999999993 61.525000000000006 21.992999999999995 62.034000000000006 C 21.945 62.099 21.871 62.133 21.795 62.133 z" stroke-linecap="round" />
</g>
		<g transform="matrix(17.18 0 0 17.18 -119.65 -68.64)"  >
<path style="stroke: none; stroke-width: 1; stroke-dasharray: none; stroke-linecap: butt; stroke-dashoffset: 0; stroke-linejoin: miter; stroke-miterlimit: 4; fill: white ; fill-rule: nonzero; opacity: 1;" vector-effect="non-scaling-stroke"  transform=" translate(-43.04, -45.79)" d="M 21.831 70.25 C 21.785 70.25 21.739 70.237 21.698 70.212 C 21.581 70.138 21.546 69.983 21.62 69.867 C 23.925 66.20100000000001 27.362000000000002 61.398 30.645000000000003 59.336000000000006 C 32.311 58.290000000000006 35.126000000000005 57.054 38.107 55.74400000000001 C 43.269999999999996 53.476000000000006 49.122 50.906000000000006 51.009 48.50000000000001 C 54.409 44.159000000000006 56.356 35.11500000000001 57.034 31.428000000000008 C 57.754 27.52200000000001 60.997 24.160000000000007 64.074 21.387000000000008 C 64.176 21.293000000000006 64.335 21.302000000000007 64.42699999999999 21.40500000000001 C 64.52 21.50800000000001 64.511 21.666000000000007 64.40799999999999 21.75800000000001 C 61.39299999999999 24.47500000000001 58.21899999999999 27.75900000000001 57.52599999999999 31.518000000000008 C 56.67399999999999 36.14300000000001 54.746999999999986 44.53800000000001 51.40199999999999 48.80800000000001 C 49.43799999999999 51.31300000000001 43.524999999999984 53.91100000000001 38.307999999999986 56.202000000000005 C 35.34399999999999 57.504000000000005 32.54499999999999 58.733000000000004 30.909999999999986 59.760000000000005 C 27.706999999999987 61.772000000000006 24.319999999999986 66.512 22.041999999999987 70.13300000000001 C 21.995 70.209 21.914 70.25 21.831 70.25 z" stroke-linecap="round" />
</g>
		<g transform="matrix(17.18 0 0 17.18 -98.23 -33.13)"  >
<path style="stroke: none; stroke-width: 1; stroke-dasharray: none; stroke-linecap: butt; stroke-dashoffset: 0; stroke-linejoin: miter; stroke-miterlimit: 4; fill: white ; fill-rule: nonzero; opacity: 1;" vector-effect="non-scaling-stroke"  transform=" translate(-44.28, -47.85)" d="M 21.831 74.397 C 21.782 74.397 21.732 74.382 21.689 74.352 C 21.575 74.274 21.547 74.119 21.626 74.004 C 25.379 68.584 28.988 63.553000000000004 31.892000000000003 61.542 C 33.419000000000004 60.484 35.952000000000005 59.449 38.885000000000005 58.249 C 43.82600000000001 56.228 49.42700000000001 53.938 51.798 50.852000000000004 C 55.468 46.07600000000001 57.113 39.342000000000006 58.608000000000004 32.281000000000006 C 59.312000000000005 28.948000000000008 61.918000000000006 25.379000000000005 66.572 21.370000000000005 C 66.676 21.281000000000006 66.83500000000001 21.292000000000005 66.925 21.396000000000004 C 67.01499999999999 21.500000000000004 67.003 21.658000000000005 66.899 21.749000000000006 C 62.331 25.684000000000005 59.779 29.163000000000004 59.097 32.385000000000005 C 57.591 39.505 55.929 46.298 52.196 51.157000000000004 C 49.742 54.35 44.074999999999996 56.668000000000006 39.076 58.713 C 36.291 59.853 33.66 60.928 32.178 61.953 C 29.342999999999996 63.917 25.763999999999996 68.909 22.037999999999997 74.29 C 21.988 74.36 21.91 74.397 21.831 74.397 z" stroke-linecap="round" />
</g>
		<g transform="matrix(17.18 0 0 17.18 -200.46 -173.89)"  >
<path style="stroke: none; stroke-width: 1; stroke-dasharray: none; stroke-linecap: butt; stroke-dashoffset: 0; stroke-linejoin: miter; stroke-miterlimit: 4; fill: white ; fill-rule: nonzero; opacity: 1;" vector-effect="non-scaling-stroke"  transform=" translate(-38.33, -39.66)" d="M 21.814 58.018 C 21.761 58.018 21.708 58.001 21.663 57.967 C 21.553 57.882999999999996 21.532 57.727 21.616 57.616 L 21.876 57.274 C 24.376 53.991 25.047 53.109 26.242 49.002 C 26.391000000000002 48.491 26.532 47.998000000000005 26.669 47.521 C 28.085 42.573 29.021 39.304 32.884 34.871 C 37.214 29.904000000000003 43.349000000000004 29.215000000000003 45.968 28.92 C 47.968 28.695 52.832 23.380000000000003 54.663000000000004 21.378 C 54.758 21.277 54.916000000000004 21.271 55.017 21.362000000000002 C 55.119 21.455000000000002 55.125 21.613000000000003 55.033 21.716 C 51.856 25.187 47.963 29.199 46.025000000000006 29.417 C 43.46300000000001 29.705000000000002 37.46300000000001 30.379 33.26200000000001 35.199 C 29.47200000000001 39.549 28.549000000000007 42.775 27.151000000000007 47.658 C 27.014000000000006 48.136 26.873000000000008 48.63 26.724000000000007 49.141 C 25.503000000000007 53.336999999999996 24.755000000000006 54.318999999999996 22.275000000000006 57.576 L 22.014000000000006 57.918 C 21.964 57.983 21.89 58.018 21.814 58.018 z" stroke-linecap="round" />
</g>
		<g transform="matrix(17.18 0 0 17.18 -68.94 2.14)"  >
<path style="stroke: none; stroke-width: 1; stroke-dasharray: none; stroke-linecap: butt; stroke-dashoffset: 0; stroke-linejoin: miter; stroke-miterlimit: 4; fill: white ; fill-rule: nonzero; opacity: 1;" vector-effect="non-scaling-stroke"  transform=" translate(-45.99, -49.91)" d="M 21.915 78.49 C 21.863 78.49 21.811 78.47399999999999 21.767 78.44099999999999 C 21.656 78.35999999999999 21.631999999999998 78.20299999999999 21.713 78.091 C 22.788 76.62899999999999 23.826 75.103 24.830000000000002 73.62599999999999 C 27.622 69.52 30.258000000000003 65.64099999999999 33.36 63.53099999999999 C 35.485 62.08599999999999 38.23 61.07899999999999 41.135999999999996 60.01199999999999 C 45.303999999999995 58.483999999999995 49.614999999999995 56.90299999999999 51.794 53.949999999999996 C 52.120999999999995 53.507999999999996 52.439 53.081999999999994 52.747 52.669 C 55.956 48.367999999999995 58.076 45.525999999999996 59.022 39.187 C 59.824999999999996 33.809 65.095 26.165999999999997 69.88499999999999 21.397 C 69.98299999999999 21.299999999999997 70.142 21.299999999999997 70.23899999999999 21.398 C 70.33699999999999 21.496 70.33699999999999 21.654 70.23899999999999 21.752 C 65.50699999999999 26.463 60.30299999999999 33.989999999999995 59.51599999999999 39.260999999999996 C 58.55099999999999 45.724999999999994 56.401999999999994 48.605999999999995 53.14699999999999 52.967999999999996 C 52.83899999999999 53.379999999999995 52.52199999999999 53.805 52.19599999999999 54.247 C 49.92699999999999 57.32 45.54499999999999 58.928 41.30799999999999 60.481 C 38.431999999999995 61.537 35.71399999999999 62.533 33.64099999999999 63.944 C 30.61799999999999 66 28.00699999999999 69.84 25.24299999999999 73.905 C 24.23699999999999 75.385 23.19599999999999 76.917 22.115999999999993 78.386 C 22.067 78.455 21.992 78.49 21.915 78.49 z" stroke-linecap="round" />
</g>
		<g transform="matrix(17.18 0 0 17.18 41.36 436.97)"  >
<path style="stroke: none; stroke-width: 1; stroke-dasharray: none; stroke-linecap: butt; stroke-dashoffset: 0; stroke-linejoin: miter; stroke-miterlimit: 4; fill: white ; fill-rule: nonzero; opacity: 1;" vector-effect="non-scaling-stroke"  transform=" translate(-52.41, -75.22)" d="M 47.63 78.76 C 47.567 78.76 47.503 78.736 47.454 78.688 C 47.356 78.59100000000001 47.355000000000004 78.433 47.452 78.334 C 49.062 76.702 55.28 71.117 56.967 71.735 C 57.12 71.79 57.382 71.947 57.42 72.383 C 57.573 74.14699999999999 56.898 76.707 55.774 78.609 C 55.705 78.72699999999999 55.550000000000004 78.768 55.432 78.69699999999999 C 55.313 78.62799999999999 55.274 78.47399999999999 55.344 78.35499999999999 C 56.418 76.535 57.067 74.097 56.921 72.42599999999999 C 56.905 72.24299999999998 56.832 72.21699999999998 56.797 72.204 C 55.736999999999995 71.832 50.602999999999994 75.85199999999999 47.806999999999995 78.684 C 47.759 78.735 47.694 78.76 47.63 78.76 z" stroke-linecap="round" />
</g>
		<g transform="matrix(17.18 0 0 17.18 31.13 476.22)"  >
<path style="stroke: none; stroke-width: 1; stroke-dasharray: none; stroke-linecap: butt; stroke-dashoffset: 0; stroke-linejoin: miter; stroke-miterlimit: 4; fill: white ; fill-rule: nonzero; opacity: 1;" vector-effect="non-scaling-stroke"  transform=" translate(-51.82, -77.51)" d="M 53.293 78.729 C 53.257 78.729 53.221 78.721 53.186 78.705 C 53.061 78.646 53.008 78.497 53.068 78.372 C 53.482 77.501 53.486 77.022 53.351 76.866 C 53.24 76.735 52.958 76.802 52.842999999999996 76.836 C 52.044 77.076 51.50899999999999 77.435 50.119 78.664 C 50.015 78.755 49.858 78.745 49.766 78.643 C 49.675 78.539 49.684 78.381 49.788 78.289 C 51.125 77.106 51.766 76.637 52.699 76.357 C 53.303999999999995 76.178 53.605 76.394 53.730999999999995 76.54 C 54.050999999999995 76.914 53.977999999999994 77.62100000000001 53.51899999999999 78.587 C 53.476 78.676 53.387 78.729 53.293 78.729 z" stroke-linecap="round" />
</g>
		<g transform="matrix(17.18 0 0 17.18 209.07 72.64)"  >
<path style="stroke: none; stroke-width: 1; stroke-dasharray: none; stroke-linecap: butt; stroke-dashoffset: 0; stroke-linejoin: miter; stroke-miterlimit: 4; fill: white ; fill-rule: nonzero; opacity: 1;" vector-effect="non-scaling-stroke"  transform=" translate(-62.18, -54.01)" d="M 45.653 78.748 C 45.591 78.748 45.528999999999996 78.726 45.481 78.68 C 45.381 78.584 45.377 78.426 45.472 78.32600000000001 L 45.971000000000004 77.801 C 49.176 74.425 51.944 71.51 54.839000000000006 70.31700000000001 C 55.605000000000004 70.00300000000001 56.42900000000001 69.71400000000001 57.227000000000004 69.43700000000001 C 60.487 68.302 63.858000000000004 67.12700000000001 65.32600000000001 63.54000000000001 C 66.09700000000001 61.65400000000001 67.07000000000001 58.05000000000001 68.10000000000001 54.23300000000001 C 69.60300000000001 48.66700000000001 71.307 42.35700000000001 72.98100000000001 39.01000000000001 C 74.33500000000001 36.302000000000014 76.522 32.62900000000001 78.483 29.39500000000001 C 78.554 29.27700000000001 78.708 29.24100000000001 78.827 29.31100000000001 C 78.945 29.38300000000001 78.982 29.53700000000001 78.911 29.65400000000001 C 76.955 32.88100000000001 74.774 36.54100000000001 73.429 39.23400000000001 C 71.778 42.53600000000001 70.08 48.82000000000001 68.584 54.36400000000001 C 67.549 58.195000000000014 66.572 61.81500000000001 65.789 63.72900000000001 C 64.235 67.52600000000001 60.757000000000005 68.73800000000001 57.392 69.91000000000001 C 56.565000000000005 70.19800000000001 55.783 70.47000000000001 55.032000000000004 70.78000000000002 C 52.23500000000001 71.93200000000002 49.501000000000005 74.81100000000002 46.33500000000001 78.14500000000001 L 45.836000000000006 78.67000000000002 C 45.785 78.722 45.719 78.748 45.653 78.748 z" stroke-linecap="round" />
</g>
		<g transform="matrix(17.18 0 0 17.18 179.68 42.29)"  >
<path style="stroke: none; stroke-width: 1; stroke-dasharray: none; stroke-linecap: butt; stroke-dashoffset: 0; stroke-linejoin: miter; stroke-miterlimit: 4; fill: white ; fill-rule: nonzero; opacity: 1;" vector-effect="non-scaling-stroke"  transform=" translate(-60.46, -52.24)" d="M 42.231 78.691 C 42.169000000000004 78.691 42.106 78.668 42.058 78.622 C 41.958 78.526 41.955 78.368 42.051 78.268 C 46.886 73.233 50.009 70.443 51.882000000000005 69.487 C 52.923 68.955 54.132000000000005 68.633 55.411 68.294 C 57.431000000000004 67.758 59.518 67.203 61.093 65.755 C 63.698 63.35699999999999 65.86500000000001 56.815999999999995 66.777 51.75299999999999 C 67.70100000000001 46.623999999999995 71.99 33.81599999999999 75.946 29.111999999999995 C 76.833 28.057999999999996 77.69 26.976999999999997 78.497 25.897999999999996 C 78.58 25.786999999999995 78.738 25.765999999999995 78.847 25.846999999999998 C 78.957 25.929999999999996 78.981 26.086 78.898 26.197 C 78.086 27.284 77.222 28.372999999999998 76.33 29.433999999999997 C 72.42699999999999 34.074999999999996 68.185 46.757 67.27 51.839999999999996 C 66.345 56.983 64.124 63.645999999999994 61.431999999999995 66.121 C 59.767999999999994 67.65299999999999 57.61899999999999 68.225 55.53999999999999 68.776 C 54.28699999999999 69.109 53.10399999999999 69.423 52.108999999999995 69.931 C 50.31399999999999 70.848 47.141999999999996 73.688 42.41199999999999 78.613 C 42.363 78.666 42.297 78.691 42.231 78.691 z" stroke-linecap="round" />
</g>
		<g transform="matrix(17.18 0 0 17.18 -14.91 3.99)"  >
<path style="stroke: none; stroke-width: 1; stroke-dasharray: none; stroke-linecap: butt; stroke-dashoffset: 0; stroke-linejoin: miter; stroke-miterlimit: 4; fill: white ; fill-rule: nonzero; opacity: 1;" vector-effect="non-scaling-stroke"  transform=" translate(-49.13, -50.01)" d="M 25.244 78.724 C 25.197 78.724 25.15 78.711 25.107 78.683 C 24.992 78.608 24.959 78.45400000000001 25.034 78.337 C 27.74 74.185 32.738 66.982 35.803 65.40100000000001 C 36.818 64.879 38.035 64.33100000000002 39.324 63.75000000000001 C 42.763999999999996 62.20000000000001 47.045 60.27100000000001 51.137 57.25200000000001 C 56.459 53.32500000000001 58.017 48.95400000000001 59.522999999999996 44.72600000000001 L 59.767999999999994 44.039000000000016 C 60.142999999999994 42.996000000000016 60.492999999999995 41.93800000000002 60.86299999999999 40.81800000000001 C 62.020999999999994 37.311000000000014 63.218999999999994 33.68400000000001 65.19099999999999 30.70700000000001 C 66.68199999999999 28.45400000000001 69.829 24.62100000000001 72.84199999999998 21.385000000000012 C 72.93499999999999 21.284000000000013 73.09399999999998 21.278000000000013 73.19499999999998 21.37200000000001 C 73.29699999999998 21.46600000000001 73.30199999999998 21.62400000000001 73.20799999999998 21.72600000000001 C 70.21199999999999 24.94400000000001 67.08599999999998 28.751000000000012 65.60699999999999 30.98400000000001 C 63.67299999999999 33.90400000000001 62.48599999999998 37.49900000000001 61.33699999999999 40.97500000000001 C 60.98299999999999 42.04900000000001 60.61499999999999 43.159000000000006 60.23799999999999 44.208000000000006 L 59.992999999999995 44.894000000000005 C 58.532999999999994 48.992000000000004 56.879 53.63700000000001 51.43299999999999 57.655 C 47.297999999999995 60.707 42.989999999999995 62.647 39.52799999999999 64.207 C 38.24499999999999 64.785 37.032999999999994 65.33099999999999 36.029999999999994 65.848 C 32.959 67.431 27.61 75.3 25.454 78.61 C 25.406 78.684 25.326 78.724 25.244 78.724 z" stroke-linecap="round" />
</g>
		<g transform="matrix(17.18 0 0 17.18 143.85 13.35)"  >
<path style="stroke: none; stroke-width: 1; stroke-dasharray: none; stroke-linecap: butt; stroke-dashoffset: 0; stroke-linejoin: miter; stroke-miterlimit: 4; fill: white ; fill-rule: nonzero; opacity: 1;" vector-effect="non-scaling-stroke"  transform=" translate(-58.38, -50.56)" d="M 38.059 78.762 C 37.992999999999995 78.762 37.927 78.736 37.876999999999995 78.684 C 37.782 78.583 37.78699999999999 78.425 37.88699999999999 78.33 L 38.12199999999999 78.107 C 42.419999999999995 74.03399999999999 47.76899999999999 68.964 49.85399999999999 68.116 C 51.09299999999999 67.611 52.77899999999999 67.149 54.410999999999994 66.702 C 56.44 66.145 58.53999999999999 65.569 59.334999999999994 65.002 C 60.66799999999999 64.05 64.149 57.574 64.681 54.06399999999999 C 65.17099999999999 50.824999999999996 66.118 46.06099999999999 67.838 41.75399999999999 C 69.49 37.62399999999999 72.77799999999999 30.08999999999999 74.568 27.45699999999999 C 75.261 26.43799999999999 76.585 24.75199999999999 78.50399999999999 22.44599999999999 C 78.594 22.34099999999999 78.75099999999999 22.32699999999999 78.85699999999999 22.41399999999999 C 78.96199999999999 22.501999999999992 78.97699999999999 22.65999999999999 78.88899999999998 22.766999999999992 C 76.98099999999998 25.05999999999999 75.66599999999998 26.732999999999993 74.98299999999998 27.738999999999994 C 73.21399999999997 30.338999999999995 69.94699999999997 37.82899999999999 68.30299999999997 41.94 C 66.59899999999998 46.202 65.66099999999997 50.926 65.17499999999997 54.138 C 64.65199999999997 57.595 61.18599999999997 64.294 59.62599999999997 65.40899999999999 C 58.75799999999997 66.029 56.71099999999997 66.591 54.54299999999997 67.184 C 52.92599999999997 67.627 51.25399999999997 68.086 50.04299999999997 68.58 C 48.04499999999997 69.393 42.73399999999997 74.42699999999999 38.46599999999997 78.472 L 38.23099999999997 78.695 C 38.182 78.739 38.121 78.762 38.059 78.762 z" stroke-linecap="round" />
</g>
		<g transform="matrix(17.18 0 0 17.18 34.74 3.79)"  >
<path style="stroke: none; stroke-width: 1; stroke-dasharray: none; stroke-linecap: butt; stroke-dashoffset: 0; stroke-linejoin: miter; stroke-miterlimit: 4; fill: white ; fill-rule: nonzero; opacity: 1;" vector-effect="non-scaling-stroke"  transform=" translate(-52.03, -50)" d="M 28.951 78.725 C 28.902 78.725 28.852 78.71 28.808 78.67999999999999 C 28.695 78.60199999999999 28.666 78.446 28.745 78.332 C 32.660000000000004 72.68299999999999 37.045 68.57199999999999 41.424 66.44699999999999 L 42.601 65.87799999999999 C 46.841 63.829999999999984 50.846 61.89599999999999 54.181 58.94099999999999 C 57.452 56.04399999999999 59.998999999999995 51.03799999999999 61.751 44.06199999999999 C 61.945 43.28599999999999 62.119 42.57799999999999 62.278999999999996 41.92499999999999 C 63.403 37.34999999999999 63.867999999999995 35.456999999999994 66.189 32.18799999999999 C 67.782 29.94499999999999 71.65599999999999 24.794999999999987 74.91799999999999 21.358999999999988 C 75.014 21.258999999999986 75.172 21.25499999999999 75.27199999999999 21.349999999999987 C 75.37299999999999 21.444999999999986 75.37599999999999 21.602999999999987 75.282 21.703999999999986 C 72.039 25.118999999999986 68.18299999999999 30.243999999999986 66.598 32.47699999999999 C 64.331 35.66799999999999 63.905 37.40399999999999 62.766 42.04399999999999 C 62.605 42.69699999999999 62.431 43.40599999999999 62.236 44.18399999999999 C 60.459999999999994 51.25899999999999 57.861999999999995 56.35099999999999 54.513 59.31599999999999 C 51.125 62.31599999999999 47.091 64.26399999999998 42.818999999999996 66.32799999999999 L 41.642999999999994 66.89599999999999 C 38.642999999999994 68.35199999999999 34.041 71.56799999999998 29.15599999999999 78.61699999999999 C 29.108 78.688 29.03 78.725 28.951 78.725 z" stroke-linecap="round" />
</g>
		<g transform="matrix(17.18 0 0 17.18 92.02 3.67)"  >
<path style="stroke: none; stroke-width: 1; stroke-dasharray: none; stroke-linecap: butt; stroke-dashoffset: 0; stroke-linejoin: miter; stroke-miterlimit: 4; fill: white ; fill-rule: nonzero; opacity: 1;" vector-effect="non-scaling-stroke"  transform=" translate(-55.36, -50)" d="M 33.586 78.715 C 33.533 78.715 33.481 78.69800000000001 33.436 78.665 C 33.326 78.58200000000001 33.304 78.42500000000001 33.387 78.31400000000001 C 35.073 76.075 38.454 71.965 42.167 69.60300000000001 C 46.864000000000004 66.614 49.185 65.584 53.581 63.717000000000006 C 57.720000000000006 61.96000000000001 59.538000000000004 58.95 61.447 54.010000000000005 C 62.578 51.083000000000006 63.453 47.614000000000004 64.298 44.260000000000005 C 64.784 42.333000000000006 65.243 40.513000000000005 65.736 38.84 C 67.003 34.551 71.402 27.691000000000003 76.944 21.362000000000002 C 77.036 21.258000000000003 77.193 21.248 77.298 21.339000000000002 C 77.402 21.430000000000003 77.412 21.588 77.321 21.692000000000004 C 71.068 28.832000000000004 67.238 35.521 66.217 38.982 C 65.725 40.646 65.268 42.461 64.783 44.382999999999996 C 63.933 47.751999999999995 63.055 51.236 61.914 54.19 C 60.262 58.465999999999994 58.509 62.169 53.776 64.178 C 49.406000000000006 66.033 47.099000000000004 67.057 42.43600000000001 70.02499999999999 C 39.733000000000004 71.74399999999999 36.662000000000006 74.79499999999999 33.787000000000006 78.615 C 33.736 78.681 33.662 78.715 33.586 78.715 z" stroke-linecap="round" />
</g>
		<g transform="matrix(17.18 0 0 17.18 315.55 114.97)"  >
<path style="stroke: none; stroke-width: 1; stroke-dasharray: none; stroke-linecap: butt; stroke-dashoffset: 0; stroke-linejoin: miter; stroke-miterlimit: 4; fill: white ; fill-rule: nonzero; opacity: 1;" vector-effect="non-scaling-stroke"  transform=" translate(-68.37, -56.48)" d="M 58.052 78.743 C 58.02 78.743 57.988 78.737 57.956 78.72399999999999 C 57.829 78.67099999999999 57.768 78.52499999999999 57.82 78.39699999999999 C 58.21 77.45599999999999 58.436 76.58399999999999 58.655 75.74099999999999 C 59.011 74.36799999999998 59.348 73.07099999999998 60.329 71.78399999999999 C 61.262 70.55999999999999 62.469 69.80799999999999 63.636 69.083 C 65.146 68.143 66.57300000000001 67.255 67.316 65.426 C 67.818 64.191 68.461 61.848 69.205 59.136 C 70.482 54.483000000000004 72.072 48.691 73.922 44.827000000000005 C 74.838 42.913000000000004 75.62899999999999 41.00000000000001 76.39399999999999 39.14900000000001 C 77.09599999999999 37.44800000000001 77.75999999999999 35.842000000000006 78.472 34.351000000000006 C 78.533 34.226000000000006 78.684 34.175000000000004 78.80499999999999 34.233000000000004 C 78.92999999999999 34.293000000000006 78.98299999999999 34.441 78.92299999999999 34.566 C 78.21699999999998 36.045 77.55599999999998 37.645 76.856 39.339 C 76.088 41.195 75.29499999999999 43.114999999999995 74.374 45.042 C 72.544 48.866 70.961 54.633 69.68799999999999 59.268 C 68.939 61.995 68.29199999999999 64.35 67.77999999999999 65.613 C 66.97599999999998 67.592 65.41299999999998 68.566 63.90099999999999 69.507 C 62.77199999999999 70.21000000000001 61.60499999999999 70.93700000000001 60.72899999999999 72.087 C 59.80799999999999 73.294 59.498999999999995 74.486 59.13999999999999 75.867 C 58.916999999999994 76.726 58.68599999999999 77.61500000000001 58.285 78.589 C 58.243 78.685 58.149 78.743 58.052 78.743 z" stroke-linecap="round" />
</g>
		<g transform="matrix(17.18 0 0 17.18 330.36 180.58)"  >
<path style="stroke: none; stroke-width: 1; stroke-dasharray: none; stroke-linecap: butt; stroke-dashoffset: 0; stroke-linejoin: miter; stroke-miterlimit: 4; fill: white ; fill-rule: nonzero; opacity: 1;" vector-effect="non-scaling-stroke"  transform=" translate(-69.24, -60.3)" d="M 59.778 78.731 C 59.754999999999995 78.731 59.731 78.728 59.708 78.72099999999999 C 59.576 78.68199999999999 59.5 78.54299999999999 59.538 78.40999999999998 C 59.69 77.88599999999998 59.806 77.41999999999999 59.91 76.99499999999998 C 60.346999999999994 75.22299999999997 60.608999999999995 74.15199999999997 62.583 72.75199999999998 C 63.707 71.95499999999998 64.804 71.44799999999998 65.771 71.00199999999998 C 67.628 70.14499999999998 69.096 69.46799999999998 69.822 67.22199999999998 C 70.134 66.25699999999998 70.531 64.49199999999998 70.99000000000001 62.44699999999998 C 72.22000000000001 56.96199999999998 74.08000000000001 48.67099999999998 76.769 44.79199999999998 C 77.378 43.91199999999998 77.953 42.97099999999998 78.47500000000001 41.99399999999998 C 78.54 41.87099999999998 78.691 41.82599999999998 78.81400000000001 41.89099999999998 C 78.935 41.955999999999975 78.98100000000001 42.10699999999998 78.917 42.22899999999998 C 78.385 43.22299999999998 77.801 44.180999999999976 77.18 45.07699999999998 C 74.54700000000001 48.875999999999976 72.70100000000001 57.10899999999998 71.47800000000001 62.555999999999976 C 70.998 64.69799999999998 70.61900000000001 66.38899999999998 70.299 67.37599999999998 C 69.50500000000001 69.82999999999997 67.872 70.58299999999997 65.98100000000001 71.45599999999997 C 65.034 71.89399999999998 63.95900000000001 72.38999999999997 62.87300000000001 73.15999999999997 C 61.052000000000014 74.45299999999997 60.81900000000001 75.39799999999997 60.396000000000015 77.11499999999997 C 60.29100000000002 77.54499999999997 60.173000000000016 78.01799999999997 60.01900000000001 78.55099999999996 C 59.986 78.66 59.887 78.731 59.778 78.731 z" stroke-linecap="round" />
</g>
		<g transform="matrix(17.18 0 0 17.18 354.84 214.74)"  >
<path style="stroke: none; stroke-width: 1; stroke-dasharray: none; stroke-linecap: butt; stroke-dashoffset: 0; stroke-linejoin: miter; stroke-miterlimit: 4; fill: white ; fill-rule: nonzero; opacity: 1;" vector-effect="non-scaling-stroke"  transform=" translate(-70.66, -62.29)" d="M 62.644 78.735 C 62.622 78.735 62.598 78.732 62.574999999999996 78.725 C 62.44199999999999 78.687 62.36599999999999 78.54799999999999 62.403999999999996 78.41499999999999 C 63.202 75.642 64.116 74.439 66.479 73.05499999999999 C 69.77 71.124 71.68599999999999 69.01499999999999 72.334 66.606 C 72.534 65.86 72.765 64.586 73.057 62.974999999999994 C 73.799 58.87799999999999 74.92 52.687999999999995 76.752 49.083999999999996 C 77.295 48.01499999999999 77.856 46.992999999999995 78.46499999999999 45.958 C 78.53499999999998 45.838 78.68799999999999 45.8 78.80799999999999 45.87 C 78.92699999999999 45.94 78.966 46.092999999999996 78.89699999999999 46.211999999999996 C 78.29299999999999 47.236999999999995 77.737 48.251 77.198 49.31099999999999 C 75.39899999999999 52.84899999999999 74.28599999999999 58.99699999999999 73.55 63.06399999999999 C 73.256 64.687 73.024 65.97 72.818 66.73599999999999 C 72.133 69.279 70.143 71.487 66.733 73.487 C 64.504 74.79299999999999 63.64 75.929 62.885000000000005 78.554 C 62.853 78.664 62.752 78.735 62.644 78.735 z" stroke-linecap="round" />
</g>
		<g transform="matrix(17.18 0 0 17.18 375.47 255.56)"  >
<path style="stroke: none; stroke-width: 1; stroke-dasharray: none; stroke-linecap: butt; stroke-dashoffset: 0; stroke-linejoin: miter; stroke-miterlimit: 4; fill: white ; fill-rule: nonzero; opacity: 1;" vector-effect="non-scaling-stroke"  transform=" translate(-71.86, -64.66)" d="M 65.03 78.731 C 64.992 78.731 64.953 78.722 64.917 78.704 C 64.794 78.642 64.745 78.491 64.808 78.368 C 65.51700000000001 76.975 66.575 76.158 67.94500000000001 75.36 C 70.534 73.85 73.316 71.803 74.325 68.073 C 74.721 66.609 74.998 64.55199999999999 75.292 62.373999999999995 C 75.765 58.86599999999999 76.301 54.891999999999996 77.485 52.52199999999999 C 77.769 51.95299999999999 78.105 51.343999999999994 78.482 50.71499999999999 C 78.553 50.59599999999999 78.705 50.55599999999999 78.826 50.62899999999999 C 78.94399999999999 50.69999999999999 78.982 50.85399999999999 78.91199999999999 50.971999999999994 C 78.541 51.590999999999994 78.211 52.187999999999995 77.93299999999999 52.745999999999995 C 76.78599999999999 55.03999999999999 76.255 58.971999999999994 75.78699999999999 62.440999999999995 C 75.49099999999999 64.63499999999999 75.21199999999999 66.708 74.80799999999999 68.204 C 73.752 72.10799999999999 70.874 74.22999999999999 68.198 75.79199999999999 C 66.627 76.70799999999998 65.829 77.46799999999999 65.255 78.59499999999998 C 65.209 78.682 65.121 78.731 65.03 78.731 z" stroke-linecap="round" />
</g>
		<g transform="matrix(17.18 0 0 17.18 404.59 312.25)"  >
<path style="stroke: none; stroke-width: 1; stroke-dasharray: none; stroke-linecap: butt; stroke-dashoffset: 0; stroke-linejoin: miter; stroke-miterlimit: 4; fill: white ; fill-rule: nonzero; opacity: 1;" vector-effect="non-scaling-stroke"  transform=" translate(-73.56, -67.96)" d="M 68.47 78.699 C 68.402 78.699 68.333 78.67099999999999 68.283 78.615 C 68.191 78.512 68.2 78.354 68.304 78.262 C 68.72500000000001 77.886 69.283 77.435 69.992 76.864 L 70.638 76.342 C 74.429 73.271 75.998 72 76.202 68.334 C 76.323 66.15 77.292 61.352000000000004 78.407 57.409000000000006 C 78.444 57.27700000000001 78.577 57.19500000000001 78.716 57.23700000000001 C 78.84899999999999 57.27400000000001 78.92599999999999 57.41300000000001 78.88799999999999 57.54600000000001 C 77.782 61.458000000000006 76.82199999999999 66.209 76.702 68.361 C 76.485 72.24900000000001 74.751 73.653 70.952 76.73 L 70.306 77.25200000000001 C 69.605 77.819 69.05 78.26700000000001 68.637 78.635 C 68.589 78.679 68.529 78.699 68.47 78.699 z" stroke-linecap="round" />
</g>
		<g transform="matrix(17.18 0 0 17.18 438.96 417.72)"  >
<path style="stroke: none; stroke-width: 1; stroke-dasharray: none; stroke-linecap: butt; stroke-dashoffset: 0; stroke-linejoin: miter; stroke-miterlimit: 4; fill: white ; fill-rule: nonzero; opacity: 1;" vector-effect="non-scaling-stroke"  transform=" translate(-75.56, -74.1)" d="M 72.524 78.738 C 72.471 78.738 72.419 78.721 72.374 78.688 C 72.264 78.605 72.241 78.44800000000001 72.324 78.337 C 73.012 77.424 73.763 76.706 74.441 76.318 C 76.023 75.41199999999999 78.095 72.532 78.296 70.315 C 78.31200000000001 70.145 78.328 69.938 78.34700000000001 69.701 C 78.35700000000001 69.564 78.45100000000001 69.44699999999999 78.61600000000001 69.472 C 78.75400000000002 69.48299999999999 78.85600000000001 69.603 78.84500000000001 69.741 C 78.82600000000001 69.98 78.81000000000002 70.189 78.79400000000001 70.361 C 78.57600000000001 72.76100000000001 76.40800000000002 75.76700000000001 74.68900000000001 76.753 C 74.069 77.108 73.37200000000001 77.778 72.724 78.639 C 72.675 78.704 72.6 78.738 72.524 78.738 z" stroke-linecap="round" />
</g>
		<g transform="matrix(17.18 0 0 17.18 468.14 469.7)"  >
<path style="stroke: none; stroke-width: 1; stroke-dasharray: none; stroke-linecap: butt; stroke-dashoffset: 0; stroke-linejoin: miter; stroke-miterlimit: 4; fill: white ; fill-rule: nonzero; opacity: 1;" vector-effect="non-scaling-stroke"  transform=" translate(-77.26, -77.13)" d="M 75.89 78.791 C 75.84 78.791 75.79 78.776 75.746 78.746 C 75.633 78.667 75.60499999999999 78.511 75.684 78.39699999999999 C 76.838 76.74699999999999 77.788 75.98799999999999 78.488 75.511 C 78.601 75.434 78.757 75.463 78.836 75.577 C 78.913 75.691 78.884 75.847 78.77 75.925 C 78.107 76.377 77.203 77.099 76.095 78.684 C 76.046 78.754 75.969 78.791 75.89 78.791 z" stroke-linecap="round" />
</g>
		<g transform="matrix(17.18 0 0 17.18 -221.5 -215.2)"  >
<path style="stroke: none; stroke-width: 1; stroke-dasharray: none; stroke-linecap: butt; stroke-dashoffset: 0; stroke-linejoin: miter; stroke-miterlimit: 4; fill: white ; fill-rule: nonzero; opacity: 1;" vector-effect="non-scaling-stroke"  transform=" translate(-37.11, -37.25)" d="M 21.903 53.176 C 21.860999999999997 53.176 21.817999999999998 53.165 21.779 53.143 C 21.659 53.075 21.617 52.922000000000004 21.686 52.802 C 23.626 49.41 24.556 46.643 25.54 43.713 C 25.798 42.944 26.061999999999998 42.159 26.349999999999998 41.342 C 28.258 35.938 31.769 30.003999999999998 35.312999999999995 28.93 C 36.528999999999996 28.561 37.946999999999996 28.387999999999998 39.44799999999999 28.203 C 42.25999999999999 27.858 45.16799999999999 27.5 47.16799999999999 25.835 C 48.83099999999999 24.448 50.687999999999995 22.79 52.135999999999996 21.399 C 52.233999999999995 21.304000000000002 52.391999999999996 21.307000000000002 52.489999999999995 21.406000000000002 C 52.58599999999999 21.506000000000004 52.581999999999994 21.664 52.48199999999999 21.76 C 51.026999999999994 23.158 49.15999999999999 24.825000000000003 47.48899999999999 26.219 C 45.37599999999999 27.979000000000003 42.39399999999999 28.345000000000002 39.50999999999999 28.699 C 38.03099999999999 28.881 36.63399999999999 29.053 35.459999999999994 29.408 C 32.08299999999999 30.431 28.688999999999993 36.222 26.822999999999993 41.508 C 26.534999999999993 42.322 26.272999999999993 43.105000000000004 26.014999999999993 43.872 C 25.022999999999993 46.826 24.084999999999994 49.616 22.119999999999994 53.05 C 22.074 53.131 21.99 53.176 21.903 53.176 z" stroke-linecap="round" />
</g>
		<g transform="matrix(17.18 0 0 17.18 -258.59 -266.22)"  >
<path style="stroke: none; stroke-width: 1; stroke-dasharray: none; stroke-linecap: butt; stroke-dashoffset: 0; stroke-linejoin: miter; stroke-miterlimit: 4; fill: white ; fill-rule: nonzero; opacity: 1;" vector-effect="non-scaling-stroke"  transform=" translate(-34.95, -34.28)" d="M 21.836 47.248 C 21.799 47.248 21.761999999999997 47.239999999999995 21.726999999999997 47.223 C 21.602999999999998 47.163 21.551 47.013999999999996 21.610999999999997 46.888999999999996 C 23.075999999999997 43.858999999999995 24.220999999999997 40.93899999999999 25.230999999999998 38.361999999999995 C 25.627 37.352 25.999 36.403999999999996 26.355999999999998 35.53699999999999 L 26.450999999999997 35.306999999999995 C 28.278999999999996 30.866999999999994 29.721999999999998 27.359999999999996 33.571 26.824999999999996 L 34.486 26.699999999999996 C 38.132999999999996 26.204999999999995 43.129 25.527999999999995 45.393 23.733999999999995 C 46.084 23.186999999999994 46.896 22.420999999999996 47.875 21.392999999999994 C 47.972 21.292999999999992 48.129 21.288999999999994 48.229 21.383999999999993 C 48.329 21.478999999999992 48.333 21.636999999999993 48.238 21.737999999999992 C 47.243 22.782999999999994 46.414 23.563999999999993 45.704 24.12599999999999 C 43.332 26.004999999999992 38.259 26.69299999999999 34.554 27.19599999999999 L 33.64 27.32099999999999 C 30.076 27.81699999999999 28.749000000000002 31.03899999999999 26.913 35.49799999999999 L 26.818 35.72799999999999 C 26.463 36.591999999999985 26.092000000000002 37.536999999999985 25.697000000000003 38.54499999999999 C 24.683000000000003 41.12999999999999 23.534000000000002 44.05999999999999 22.061000000000003 47.106999999999985 C 22.018 47.196 21.929 47.248 21.836 47.248 z" stroke-linecap="round" />
</g>
		<g transform="matrix(17.18 0 0 17.18 -302.75 -311.62)"  >
<path style="stroke: none; stroke-width: 1; stroke-dasharray: none; stroke-linecap: butt; stroke-dashoffset: 0; stroke-linejoin: miter; stroke-miterlimit: 4; fill: white ; fill-rule: nonzero; opacity: 1;" vector-effect="non-scaling-stroke"  transform=" translate(-32.37, -31.64)" d="M 21.846 41.623 C 21.813 41.623 21.779 41.616 21.746 41.602 C 21.619 41.547 21.561 41.398999999999994 21.616 41.272999999999996 C 22.823999999999998 38.495 23.904 35.581999999999994 24.856 33.010999999999996 C 25.432000000000002 31.453999999999997 25.930000000000003 30.109999999999996 26.356 29.072999999999997 C 28.123 24.769 32.215 24.302999999999997 35.912 24.203999999999997 C 37.772999999999996 24.153999999999996 40.274 23.237999999999996 42.772999999999996 21.691999999999997 C 42.888999999999996 21.616999999999997 43.044999999999995 21.655999999999995 43.117 21.772999999999996 C 43.19 21.889999999999997 43.153999999999996 22.043999999999997 43.035999999999994 22.116999999999997 C 40.46399999999999 23.708999999999996 37.87299999999999 24.651999999999997 35.925999999999995 24.703999999999997 C 32.224 24.802999999999997 28.470999999999997 25.237 26.819999999999993 29.262999999999998 C 26.397999999999993 30.291999999999998 25.900999999999993 31.633 25.325999999999993 33.184999999999995 C 24.418999999999993 35.63399999999999 23.289999999999992 38.681999999999995 22.075999999999993 41.471999999999994 C 22.034 41.567 21.942 41.623 21.846 41.623 z" stroke-linecap="round" />
</g>
		<g transform="matrix(17.18 0 0 17.18 -361.73 -388.04)"  >
<path style="stroke: none; stroke-width: 1; stroke-dasharray: none; stroke-linecap: butt; stroke-dashoffset: 0; stroke-linejoin: miter; stroke-miterlimit: 4; fill: white ; fill-rule: nonzero; opacity: 1;" vector-effect="non-scaling-stroke"  transform=" translate(-28.94, -27.19)" d="M 21.965 32.967 C 21.928 32.967 21.891 32.958999999999996 21.855999999999998 32.942 C 21.730999999999998 32.881 21.68 32.732 21.74 32.608 C 22.607999999999997 30.816999999999997 23.276 28.970999999999997 23.726 27.119999999999997 C 24.737 22.964 27.46 22.520999999999997 31.497999999999998 22.319999999999997 C 32.763999999999996 22.255999999999997 34.224 21.953999999999997 35.839999999999996 21.423999999999996 C 35.97 21.378999999999994 36.111999999999995 21.451999999999995 36.154999999999994 21.582999999999995 C 36.19799999999999 21.713999999999995 36.126999999999995 21.854999999999993 35.995999999999995 21.897999999999996 C 34.337999999999994 22.442999999999998 32.833 22.751999999999995 31.522999999999996 22.817999999999998 C 27.069999999999997 23.04 25.069999999999997 23.703 24.210999999999995 27.237 C 23.752999999999997 29.122 23.071999999999996 31.002 22.188999999999997 32.824999999999996 C 22.146 32.915 22.058 32.967 21.965 32.967 z" stroke-linecap="round" />
</g>
		<g transform="matrix(17.18 0 0 17.18 -450.28 -423.8)"  >
<path style="stroke: none; stroke-width: 1; stroke-dasharray: none; stroke-linecap: butt; stroke-dashoffset: 0; stroke-linejoin: miter; stroke-miterlimit: 4; fill: white ; fill-rule: nonzero; opacity: 1;" vector-effect="non-scaling-stroke"  transform=" translate(-23.79, -25.11)" d="M 21.952 28.844 C 21.919 28.844 21.886000000000003 28.838 21.854000000000003 28.824 C 21.727000000000004 28.770000000000003 21.667 28.623 21.722 28.496000000000002 C 22.088 27.633000000000003 22.361 26.643 22.679000000000002 25.439000000000004 C 23.176000000000002 23.561000000000003 24.096000000000004 22.241000000000003 25.491000000000003 21.405000000000005 C 25.609 21.335000000000004 25.763 21.373000000000005 25.834000000000003 21.491000000000003 C 25.905000000000005 21.609 25.867000000000004 21.763 25.748000000000005 21.834000000000003 C 24.471000000000004 22.6 23.625000000000004 23.821000000000005 23.163000000000004 25.567000000000004 C 22.839000000000002 26.791000000000004 22.561000000000003 27.798000000000002 22.183000000000003 28.692000000000004 C 22.142 28.787 22.049 28.844 21.952 28.844 z" stroke-linecap="round" />
</g>
		<g transform="matrix(17.18 0 0 17.18 -492.9 -486.46)"  >
<path style="stroke: none; stroke-width: 0.5; stroke-dasharray: none; stroke-linecap: round; stroke-dashoffset: 0; stroke-linejoin: round; stroke-miterlimit: 10; fill: white ; fill-rule: nonzero; opacity: 1;" vector-effect="non-scaling-stroke"  transform=" translate(-21.3, -21.46)" d="M 21.304 21.459" stroke-linecap="round" />
</g>
</g>
</g>
</svg>